<?xml version="1.0" encoding="utf-8"?>
<!-- Generator: Adobe Illustrator 22.1.0, SVG Export Plug-In . SVG Version: 6.00 Build 0)  -->
<svg version="1.1" id="katman_1" xmlns="http://www.w3.org/2000/svg" xmlns:xlink="http://www.w3.org/1999/xlink" x="0px" y="0px"
	 viewBox="0 0 389 389" style="enable-background:new 0 0 389 389;" xml:space="preserve">
<style type="text/css">
	.st0{fill:none;}
	.st1{fill:#FFFFFF;}
	.st2{fill:url(#SVGID_1_);}
	.st3{fill:url(#SVGID_2_);}
</style>
<g>
	<path class="st0" d="M339.5,92.8L210.3,307c-5.4,8.8-18,8.8-23.5,0L59.7,93.4c-5.4-9.2,1-20.4,11.6-20.4L328,72.4
		C338.5,72,344.9,83.6,339.5,92.8z"/>
	<path class="st1" d="M193,10.1C103.6,3.7,53.6,19.7,44.4,21.4v25.2c26.2-5.8,72.4-13.9,138.4-16l0,0h0.3l0,0
		c90.4-1.7,145.9,8.8,161.5,12.6c0-0.3,0,0.3,0,0C343.9,43.1,291.9,18.6,193,10.1z"/>
	<path class="st1" d="M309.6,256c-38.4,46.6-91.5,80.2-113.2,89.8l0,0l0,0l0,0C163.7,330.8,85.9,277,50.5,173
		c-0.7-3.1-1.7-5.8-2.4-8.8c0.7,3.7,1,7.8,1.7,11.6v-0.3c1.4,6.5,2.7,13.3,4.1,19.7C86.6,306.6,166.1,364.4,196,380.4
		C219.1,368.2,271.5,323.3,309.6,256z"/>
</g>
<path class="st1" d="M98,56.4c-2.4,6.3-3.2,13.4-2.4,21.9c1.3,15.3,5.6,29.8,11.6,46.8c12.5,34.3,29.9,66.5,46.9,96.1l0.1,0.1v0.1
	c0,0.1,0,0.2,0,0.3c3.2-1.8,6.4-3.6,9.6-5.5c2.7-1.6,5.6-3.2,8.4-4.8l0.4-0.2l0.2,0.4c2.6,4.4,4.9,8.1,7.4,12.6
	c0.3-0.5,0.5-0.8,0.7-1.2c0.3-0.4,0.5-0.8,0.8-1.3l1.3-2.3c2.7-4.8,5.2-9.3,7.9-13.7c1.3-1.9,0.9-3.4,0-5.3
	c-13.6-25.5-27.2-50.9-40.8-76.3s-27.2-50.9-40.8-76.4v-0.1c-0.2-0.9-0.8-1.7-1.4-2.6C103.1,47.3,100.1,50.8,98,56.4z"/>
<path class="st1" d="M282.7,156.5c13.9-28.6,27.7-56.3,39.4-79.6l0.6-0.9c0.3-0.7,0.7-1.3,0.5-2.2l-0.1-0.2
	c-0.2-0.8-0.6-2.2-1.3-3.4c0,0-0.1,0-0.2,0c-0.8,0-2.2,0.2-3.1,0.9h-0.1c-0.3,0.1-0.5,0.7-0.8,1.2c-0.2,0.4-0.4,0.9-0.7,1.3
	C313,81,309,88.4,305,95.8c-8.6,16-17.5,32.5-26.1,48.8c-0.7,1.5-1.8,3.5-3.3,4.3c-1,0.7-2.3,1.1-3.9,1.1c-0.6,0-1.4,0-2.2-0.3
	c-1.1-0.6-1.8-1.9-2.1-2.6c-0.3-0.6-0.7-1.6-0.8-2.5c-0.2-0.6,0-1.3,0.3-1.8c0.2-1.2,1-2.6,1.7-3.7c11.4-21,22.5-42,32.9-61.6
	l4.6-8.9c0-0.3,0.2-0.5,0.3-0.6v-0.2l0.2-0.2c0.1-0.2,0.3-0.4,0.4-0.6c0.1-0.3,0.3-0.7,0.5-1.1s0.2-0.8,0.2-1.3
	c-0.2-1-0.6-2.2-1.1-3.3l-0.1-0.1c-0.2-0.2-0.4-0.2-0.7-0.2c-0.8,0-1.8,0.5-2.5,0.8c-0.1,0.1-0.3,0.1-0.4,0.2
	c-0.5,0.4-0.8,1-1.1,1.7c-0.2,0.4-0.4,0.9-0.7,1.3l-7.5,12.9c-10.8,18.6-21.9,37.9-33,56.7c-0.7,1.4-1.8,2.8-2.8,3.8
	c-1.3,0.9-2.8,1.8-4.5,1.8c-1,0-1.9,0-3-0.8c-2.1-1.1-3.2-3.3-2.8-5.8c0-0.3,0.1-0.7,0.2-1.1c0.1-1.1,0.7-2.4,1.9-4.1
	c8.2-14.3,34.4-59.4,39.5-68.2l0.5-0.9h0.1c0.6-0.9,1.5-2.1,1.5-2.9c0-1.4-0.4-3.2-1.2-3.7c-0.2-0.2-0.4-0.2-0.7-0.2
	c-0.6,0-1.4,0.3-2.2,0.6c-0.4,0.1-0.7,0.3-1,0.4c-0.2,0.2-0.5,0.6-0.7,1s-0.5,0.9-0.8,1.2C274,72.2,263.4,89,253.2,105.3
	c-4,6.4-7.9,12.7-11.9,19c-0.7,1.4-1.8,2.8-2.8,3.8c-1.2,1.2-2.6,1.8-4.1,1.8c-0.7,0-1.9-0.3-2.8-1.1c-1.5-1.5-2.5-4-2.5-6.2
	c0-1.9,1.2-3.8,2.1-5.1c14.2-22.8,28.7-46.3,42.8-69c1.1-1.5,1.5-2.7,1.3-3.6c-0.1-0.7-0.6-1.3-1.4-1.8c-0.3-0.1-0.5-0.2-0.7-0.3
	c-0.4-0.2-0.6-0.3-1-0.3c-1.5,0-2.3,1.2-2.5,2.3l-0.1,0.2c-8.5,12.7-17,25.6-25.5,38.4s-17,25.7-25.5,38.4
	c-3.2,4.8-4.3,10.4-3.3,16.6c1.2,7.2,4.7,13.7,11.1,20.4l0.3,0.3l-0.2,0.3c-0.3,0.5-0.5,1-0.8,1.4c-0.3,0.5-0.5,1.1-0.9,1.7
	c-11.4,19.8-23.1,40.1-34.5,59.6c-13.3,22.9-27,46.6-40.3,69.8l-0.3,0.5c-0.6,0.9-1.1,1.7-1.4,2.5c-1.7,4-1.4,7.5,0.9,10.8
	c2.2,3,5.2,4.6,8.4,4.6h1.7c3.7-0.5,6.5-2.7,8.8-6.8c14.6-25.6,29.6-51.5,44.1-76.6c10.1-17.5,20.5-35.5,30.7-53.3
	c0.6-1.1,1.4-2.4,1.8-2.8l0.2-0.2h0.2c3.8,0.3,8.2,0.7,12.2,0.7h3.1C270.7,170.5,278.1,165.6,282.7,156.5z"/>
<path class="st1" d="M238.8,310.7c4.5-1.3,8.2-5.1,8.2-9.5c0-2.8-0.6-5.8-2-8.2c-9.9-17.7-20.1-35.4-30.3-52.7
	c-0.3-0.7-1-1.7-1.7-2.7c-4.1,7.1-8.1,13.9-11.9,20.7c-0.3,0.7-0.3,2,0,2.7c8.9,15,17.4,29.9,26.2,44.9c1.7,3.4,5.4,5.1,8.8,5.1
	C237.1,311,237.8,311,238.8,310.7z"/>
<path class="st0" d="M324.9,65.7c-1.1-0.8-2.2-1.1-3.7-1.1c-1.9,0-3.7,0.8-4.9,1.3c-0.4,0.2-0.7,0.3-1.1,0.4
	c-0.9,0.5-1.7,1.2-2.4,2.2c-0.9,1-1.4,2.1-1.5,2.7l-0.1,0.2c-0.1,0.1-0.2,0.3-0.2,0.5l-9.8,18.3c-7.4,14.2-15.1,28.6-21.7,40.9
	l-2.1,3.9c-1.4,2.5-2.7,5.1-4.1,7.6c-0.2,0.4-0.5,0.9-0.8,1.3c0.1-0.2,0.2-0.4,0.2-0.5c0.1-0.3,0.3-0.5,0.3-0.7
	c4.4-8.1,8.7-16.4,13-24.4c5-9.4,10.1-19.1,15.2-28.6l9.9-18.4l0.1-0.1v-0.1c0.1-0.1,0.2-0.3,0.3-0.6c0.8-1.2,1.7-3.3,1.7-5.6
	c0-0.6-0.1-6.3-4.3-8.6c-1.2-0.8-2.7-1.1-3.7-1.1c-2.6,0-5.1,1.3-5.7,1.8c-0.8,0.4-1.4,0.9-2,1.6c-0.5,0.4-0.9,0.9-1.3,1.4
	c0.5-1,1-2.2,1-3.7c0-1.6-0.3-7-4.3-9.2c-1.1-0.8-2.2-1.1-3.7-1.1c-2,0-3.8,0.4-6,1.5c-2,1-3.1,2.9-3.7,4l-0.2,0.3H279L268.6,68
	c-5.5,8.9-11.1,17.8-16.5,26.4s-11,17.5-16.5,26.3c0,0.1-0.1,0.1-0.1,0.2l0,0l0.3-0.6c14.1-22.7,28.6-46.2,42.8-69
	c1.9-3.2,2.6-6,2-8.5c-0.7-2.8-2.9-4.3-4.1-5.1c-1.4-1.2-3.6-1.3-4.3-1.3c-4.5,0-7,3.6-8.1,5.1l-0.2,0.2c-3.2,4.7-6.5,9.6-9.6,14.3
	c-2.7,4.2-5.6,8.5-8.4,12.6c-5.4,8.3-11.1,16.8-16.5,25s-11.1,16.7-16.5,25c-4.1,6.1-5.5,13.1-4.2,20.7c1,7.5,4.3,14.2,10.1,20.7
	l-22.3,38.7c-0.1-0.3-0.3-0.6-0.5-1l-0.3-0.6c-20.9-39.2-42.6-79.8-64-119.4l-17.3-32.6c-0.2-0.5-0.6-1.1-0.9-1.7
	c-0.2-0.3-0.3-0.6-0.5-0.8l-0.7-1l-1.9-4.5l-4.6,1.9c-6.2,2.4-10.7,7.3-13.5,14.6c-2.6,6.6-3.5,14.3-2.7,24.3
	c1.4,17.8,6.7,34.3,11.6,48.4c13.7,37.2,32.5,71.5,47.3,97.2c0.1,0.3,0.2,0.5,0.5,0.6l0.1,0.1l2.6,5.2l4.9-3l13.5-7.9l4.9,8.8
	l2.4,4.2l-6.1,10.7l-26.9,46.7l-0.3,0.7c-0.6,0.8-0.9,1.5-1.4,2.4l-0.4,0.7c-2.5,6-2,11.6,1.5,16.5c3.2,4.6,7.8,7,13.3,7h2.5
	c7.1-1,10.7-6.1,13-9.4l0.2-0.3c7.3-12.7,14.7-25.5,22-38.3c0.7-1.2,1.4-2.5,2.1-3.7c8.6,15,17,29.7,25.7,44
	c2.7,4.8,7.8,7.5,13.3,7.5c1.4,0,2.7,0,3.7-0.3c7.1-1.7,11.9-7.5,12.2-14.3c0-3.4-1-7.5-2.7-10.9c-7.8-13.6-16-27.5-23.5-41.1
	l-6.8-11.6c-0.3-0.7-0.7-1.4-1.4-2l-0.7-1l-1.4-2.3c7.2-12.6,14.5-25.1,21.7-37.6l10.4-17.8h1.7c2.7,0.3,5.2,0.3,7.6,0.3h3.4
	c12.3-1,21.8-7.3,27.3-18.3c9.2-18.6,18.6-37.5,27.8-55.8l0.1-0.3c2-4.2,4.1-8.4,6.1-12.5c1.8-3.6,3.7-7.3,5.4-10.9l0.3-0.3
	c0.8-1.2,1.8-3.4,1.8-5.8C329,72.2,328.3,67.9,324.9,65.7z M245,293c1.4,2.4,2,5.4,2,8.2c0,4.4-3.7,8.2-8.2,9.5
	c-1,0.3-1.7,0.3-2.7,0.3c-3.4,0-7.1-1.7-8.8-5.1c-8.8-15-17.3-29.9-26.2-44.9c-0.3-0.7-0.3-2,0-2.7c3.8-6.8,7.8-13.6,11.9-20.7
	c0.7,1,1.4,2,1.7,2.7C224.9,257.6,235.1,275.3,245,293z M172.7,211.6l-0.2-0.4l-0.4,0.2c-2.8,1.6-5.6,3.2-8.4,4.8
	c-3.1,1.8-6.4,3.7-9.6,5.5c0-0.1,0-0.2,0-0.3v-0.1l-0.1-0.1c-17-29.6-34.4-61.8-46.9-96.1c-6-17-10.3-31.4-11.6-46.8
	c-0.8-8.5,0-15.6,2.4-21.9c2.1-5.6,5.2-9.1,9.9-11.3c0.6,0.9,1.1,1.7,1.4,2.6v0.1c13.6,25.5,27.2,50.9,40.8,76.4
	c13.6,25.4,27.2,50.8,40.8,76.3c1,1.9,1.3,3.4,0,5.3c-2.7,4.4-5.2,8.9-7.9,13.7l-1.3,2.3c-0.3,0.5-0.6,0.8-0.8,1.3
	c-0.2,0.4-0.4,0.7-0.7,1.2C177.6,219.8,175.3,216,172.7,211.6z M322.6,75.9l-0.6,0.9c-11.7,23.3-25.5,51-39.4,79.6
	c-4.6,9.1-11.9,14-22.4,15h-3.1c-3.9,0-8.4-0.4-12.2-0.7h-0.2l-0.2,0.2c-0.4,0.4-1.2,1.7-1.8,2.8c-10.2,17.8-20.6,35.8-30.7,53.3
	c-14.5,25.1-29.5,51-44.1,76.6c-2.2,4.2-5.1,6.3-8.8,6.8h-1.7c-3.2,0-6.2-1.6-8.4-4.6c-2.3-3.2-2.6-6.7-0.9-10.8
	c0.2-0.8,0.8-1.6,1.4-2.5l0.3-0.5c13.4-23.3,27.1-47,40.3-69.8c11.3-19.6,23-39.8,34.5-59.6c0.4-0.6,0.7-1.1,0.9-1.7
	c0.2-0.5,0.5-0.9,0.8-1.4l0.2-0.3l-0.3-0.3c-6.4-6.7-9.9-13.2-11.1-20.4c-1-6.2,0.1-11.8,3.3-16.6c8.5-12.8,17-25.6,25.5-38.4
	s17-25.6,25.5-38.4l0.1-0.2c0.2-1.1,1.1-2.3,2.5-2.3c0.4,0,0.6,0.1,1,0.3c0.2,0.1,0.5,0.2,0.7,0.3c0.8,0.5,1.3,1.1,1.4,1.8
	c0.2,0.9-0.2,2.1-1.3,3.6c-14.1,22.7-28.6,46.2-42.8,69c-0.9,1.3-2.1,3.2-2.1,5.1c0,2.1,1,4.7,2.5,6.2c0.8,0.8,2,1.1,2.8,1.1
	c1.4,0,2.9-0.7,4.1-1.8c1-1,2-2.4,2.8-3.8c4-6.3,7.9-12.7,11.9-19c10.4-16.4,21-33.2,31.5-49.7c0.3-0.4,0.6-0.8,0.8-1.2
	c0.2-0.4,0.4-0.8,0.7-1c0.3-0.1,0.6-0.2,1-0.4c0.7-0.3,1.6-0.6,2.2-0.6c0.3,0,0.5,0,0.7,0.2c0.8,0.5,1.2,2.3,1.2,3.7
	c0,0.8-0.8,2-1.5,2.9h-0.1l-0.5,0.9c-5.2,8.9-31.3,53.9-39.5,68.2c-1.2,1.7-1.8,3-1.9,4.1c-0.1,0.4-0.2,0.7-0.2,1.1
	c-0.4,2.5,0.7,4.7,2.8,5.8c1.1,0.8,1.9,0.8,3,0.8c1.7,0,3.1-0.9,4.5-1.8c1-1,2-2.4,2.8-3.8c11.1-18.8,22.2-38.1,33-56.7L301,65
	c0.3-0.4,0.5-0.8,0.7-1.3c0.3-0.7,0.6-1.3,1.1-1.7c0.1,0,0.2-0.1,0.4-0.2c0.7-0.3,1.7-0.8,2.5-0.8c0.3,0,0.5,0,0.7,0.2l0.1,0.1
	c0.5,1.1,0.8,2.3,1.1,3.3c0,0.5-0.1,0.9-0.2,1.3c-0.2,0.4-0.4,0.7-0.5,1.1c-0.1,0.2-0.3,0.4-0.4,0.6l-0.2,0.2V68
	c-0.1,0.1-0.2,0.3-0.3,0.6l-4.6,8.9c-10.4,19.6-21.5,40.5-32.9,61.6c-0.7,1.2-1.5,2.5-1.7,3.7c-0.2,0.5-0.4,1.2-0.3,1.8
	c0.1,0.9,0.5,1.9,0.8,2.5c0.3,0.7,1,2,2.1,2.6c0.8,0.3,1.6,0.3,2.2,0.3c1.6,0,3-0.4,3.9-1.1c1.5-0.8,2.6-2.8,3.3-4.3
	c8.6-16.3,17.5-32.8,26.1-48.8c4-7.5,8-14.9,11.9-22.2c0.3-0.4,0.5-0.9,0.7-1.3c0.2-0.5,0.5-1.1,0.8-1.2h0.1c1-0.7,2.3-0.9,3.1-0.9
	c0.1,0,0.2,0,0.2,0c0.7,1.2,1.1,2.6,1.3,3.4l0.1,0.2C323.3,74.6,322.9,75.3,322.6,75.9z"/>
<g>
	<path class="st1" d="M246,68.7c0.3-0.4,0.6-0.8,0.8-1.2l-120.3,0.3l5.4,10.1c0,0,0,0.1,0.1,0.1l108.2-0.3
		C242.1,74.7,244,71.7,246,68.7z"/>
	
		<linearGradient id="SVGID_1_" gradientUnits="userSpaceOnUse" x1="289.3625" y1="119.1" x2="289.3625" y2="322.7188" gradientTransform="matrix(1 0 0 -1 0 390)">
		<stop  offset="0" style="stop-color:#FFFFFF;stop-opacity:0"/>
		<stop  offset="1" style="stop-color:#FFFFFF"/>
	</linearGradient>
	<path class="st2" d="M343.9,76c-3.4-5.7-9.4-9-16-8.7h-1.2c1.9,2.3,2.3,5.2,2.5,6.5c0,1.3-0.3,2.6-0.7,3.7c2.8,0,5.2,1.3,6.7,3.8
		c1.6,2.7,1.6,6.1,0,8.9l-103,170.6c1.9,3.4,3.9,6.7,5.8,10.1L343.9,95.4v-0.1C347.4,89.4,347.4,82,343.9,76z"/>
	<path class="st0" d="M213.2,292.4l-7.2,12c-1.6,2.6-4.3,4.2-7.3,4.2l0,0c-3.1,0-5.8-1.5-7.4-4.2l-8.5-14.3
		c-1.9,3.4-3.9,6.8-5.8,10.1l5.6,9.5l0.1,0.1c3.5,5.6,9.5,9,16.1,9h0.1c6.6,0,12.5-3.4,16-9.1l4.4-7.3
		C217.1,299,215.1,295.7,213.2,292.4z"/>
	
		<linearGradient id="SVGID_2_" gradientUnits="userSpaceOnUse" x1="107.8056" y1="122.8" x2="107.8056" y2="322.2" gradientTransform="matrix(1 0 0 -1 0 390)">
		<stop  offset="0" style="stop-color:#FFFFFF;stop-opacity:0"/>
		<stop  offset="1" style="stop-color:#FFFFFF"/>
	</linearGradient>
	<path class="st3" d="M163,257.1L64.1,90.8c-1.6-2.8-1.7-5.9-0.2-8.6c1.5-2.6,4.2-4.2,7.4-4.2h18.5c-0.3-3.7-0.3-7.1-0.1-10.2H71.3
		c-6.8,0-12.9,3.5-16.2,9.3c-3.4,5.9-3.3,13,0.2,18.9l101.9,171.2L163,257.1z"/>
</g>
</svg>
